<svg width="20" height="20" viewBox="0 0 20 20" fill="none" xmlns="http://www.w3.org/2000/svg">
<path d="M7.59356 1.94005C7.68397 1.39759 8.1533 1 8.70325 1H11.2972C11.8472 1 12.3165 1.39759 12.4069 1.94005L12.6204 3.2211C12.6828 3.59514 12.9327 3.90671 13.2645 4.09036C13.3387 4.13142 13.412 4.17383 13.4844 4.21757C13.8095 4.41384 14.2048 4.47486 14.5604 4.34166L15.7772 3.88578C16.2922 3.69284 16.8712 3.90051 17.1462 4.37677L18.4432 6.62321C18.7181 7.09948 18.6085 7.70473 18.1839 8.05426L17.1795 8.88108C16.887 9.12188 16.742 9.49372 16.7491 9.87253C16.7498 9.91492 16.7502 9.95742 16.7502 10C16.7502 10.0426 16.7498 10.0851 16.7491 10.1275C16.742 10.5063 16.887 10.8781 17.1795 11.1189L18.1839 11.9457C18.6085 12.2953 18.7181 12.9005 18.4432 13.3768L17.1462 15.6232C16.8712 16.0995 16.2922 16.3071 15.7772 16.1142L14.5604 15.6583C14.2048 15.5251 13.8095 15.5862 13.4844 15.7824C13.412 15.8262 13.3387 15.8686 13.2645 15.9096C12.9327 16.0933 12.6828 16.4049 12.6204 16.7789L12.4069 18.0599C12.3165 18.6024 11.8472 19 11.2972 19H8.70325C8.15331 19 7.68397 18.6024 7.59356 18.0599L7.38005 16.7789C7.31771 16.4049 7.06773 16.0933 6.73597 15.9096C6.66179 15.8686 6.58847 15.8262 6.51604 15.7824C6.19101 15.5862 5.79567 15.5251 5.44011 15.6583L4.22324 16.1142C3.70825 16.3072 3.12926 16.0995 2.85429 15.6232L1.55731 13.3768C1.28233 12.9005 1.39199 12.2953 1.81657 11.9457L2.82092 11.1189C3.11343 10.8781 3.25843 10.5063 3.25141 10.1275C3.25063 10.0851 3.25023 10.0426 3.25023 10C3.25023 9.95742 3.25063 9.91493 3.25141 9.87254C3.25843 9.49373 3.11343 9.12189 2.82092 8.88109L1.81657 8.05427C1.39199 7.70475 1.28233 7.09949 1.55731 6.62323L2.85429 4.37679C3.12926 3.90052 3.70825 3.69286 4.22324 3.88579L5.4401 4.34167C5.79566 4.47487 6.19099 4.41385 6.51603 4.21758C6.58846 4.17384 6.66179 4.13142 6.73597 4.09036C7.06773 3.90671 7.31771 3.59514 7.38005 3.2211L7.59356 1.94005Z" stroke="white" stroke-width="1.5" stroke-linecap="round" stroke-linejoin="round"/>
<path d="M13 9.99992C13 11.6568 11.6569 12.9999 10 12.9999C8.34315 12.9999 7 11.6568 7 9.99992C7 8.34307 8.34315 6.99992 10 6.99992C11.6569 6.99992 13 8.34307 13 9.99992Z" stroke="white" stroke-width="1.5" stroke-linecap="round" stroke-linejoin="round"/>
</svg>
