<svg width="281" height="50" viewBox="0 0 281 50" fill="none" xmlns="http://www.w3.org/2000/svg">
  <path
    d="M41.4862 20.07C41.1363 9.11059 32.2559 0.266489 21.2596 0C20.9763 0 20.7431 0.216522 20.7431 0.499667L20.7264 7.86143C20.7264 8.22785 20.4432 8.51099 20.0766 8.52765C9.11363 8.86076 0.266578 17.7548 0 28.7475C0 29.0306 0.216594 29.2638 0.499833 29.2638L7.84738 29.2805C8.21393 29.2805 8.49717 29.5636 8.51383 29.93C8.86371 40.8894 17.7607 49.7335 28.7404 50C29.0237 50 29.2569 49.7835 29.2569 49.5003L29.2736 42.1386C29.2736 41.7722 29.5568 41.489 29.9234 41.4724C40.8864 41.1226 49.7334 32.2285 50 21.2525C50 20.9694 49.7834 20.7362 49.5002 20.7362L42.1526 20.7195C41.7861 20.7195 41.5028 20.4364 41.4862 20.07ZM28.5405 41.4224C22.3092 41.056 17.3109 35.9927 17.0776 29.7302C17.061 29.4637 16.8444 29.2472 16.5778 29.2472L9.24692 29.2305C8.86371 29.2305 8.56381 28.9141 8.58047 28.531C8.94702 22.3018 14.012 17.3051 20.2766 17.072C20.5432 17.0553 20.7597 16.8388 20.7597 16.5723L20.7764 9.22718C20.7764 8.8441 21.093 8.5443 21.4762 8.56096C27.7074 8.92738 32.7058 13.9907 32.939 20.2532C32.9557 20.5197 33.1723 20.7362 33.4389 20.7362L40.7697 20.7528C41.1529 20.7528 41.4528 21.0693 41.4362 21.4524C41.0696 27.8481 35.7547 32.928 29.2736 32.928L29.2569 40.7562C29.2403 41.1392 28.9237 41.439 28.5405 41.4224Z"
    fill="#E60000" />
  <path fill-rule="evenodd" clip-rule="evenodd"
    d="M20.5254 20.5691C20.5254 19.5613 21.6059 18.9224 22.4889 19.4081L30.6442 23.8935C31.5595 24.3969 31.5595 25.712 30.6442 26.2154L22.4889 30.7008C21.6059 31.1865 20.5254 30.5477 20.5254 29.5399V20.5691Z"
    fill="white" class="text" />
  <path
    d="M55 19.3939C55 18.1419 55.2378 16.9674 55.7134 15.8702C56.189 14.773 56.8325 13.8165 57.6438 13.0006C58.4691 12.1707 59.4273 11.5166 60.5183 11.0384C61.6094 10.5601 62.7774 10.321 64.0224 10.321H77.8287V16.3766H64.0224C63.6027 16.3766 63.2111 16.454 62.8474 16.6087C62.4837 16.7634 62.1619 16.9815 61.8822 17.2628C61.6164 17.5301 61.4066 17.8465 61.2527 18.2123C61.0988 18.578 61.0219 18.9719 61.0219 19.3939C61.0219 19.8159 61.0988 20.2168 61.2527 20.5965C61.4066 20.9623 61.6164 21.2858 61.8822 21.5671C62.1619 21.8344 62.4837 22.0454 62.8474 22.2001C63.2111 22.3549 63.6027 22.4322 64.0224 22.4322H70.0443C71.2892 22.4322 72.4572 22.6714 73.5483 23.1496C74.6534 23.6138 75.6116 24.2609 76.4229 25.0908C77.2482 25.9066 77.8917 26.8702 78.3533 27.9815C78.8289 29.0786 79.0667 30.2532 79.0667 31.5051C79.0667 32.757 78.8289 33.9316 78.3533 35.0288C77.8917 36.126 77.2482 37.0895 76.4229 37.9194C75.6116 38.7353 74.6534 39.3824 73.5483 39.8606C72.4572 40.3389 71.2892 40.578 70.0443 40.578H56.6786V34.5224H70.0443C70.4639 34.5224 70.8556 34.445 71.2193 34.2903C71.583 34.1356 71.8977 33.9246 72.1635 33.6573C72.4433 33.376 72.6601 33.0524 72.8139 32.6867C72.9678 32.321 73.0447 31.9271 73.0447 31.5051C73.0447 31.0831 72.9678 30.6893 72.8139 30.3235C72.6601 29.9578 72.4433 29.6413 72.1635 29.374C71.8977 29.0927 71.583 28.8747 71.2193 28.7199C70.8556 28.5652 70.4639 28.4879 70.0443 28.4879H64.0224C62.7774 28.4879 61.6094 28.2487 60.5183 27.7705C59.4273 27.2922 58.4691 26.6451 57.6438 25.8293C56.8325 24.9994 56.189 24.0358 55.7134 22.9386C55.2378 21.8274 55 20.6458 55 19.3939Z"
    fill="white" class="text" />
  <path
    d="M93.3136 40.578C91.9288 40.578 90.6279 40.3178 89.4109 39.7973C88.1939 39.2628 87.1239 38.5384 86.2006 37.624C85.2914 36.6957 84.571 35.6196 84.0395 34.3958C83.5219 33.172 83.2631 31.8638 83.2631 30.4712V23.7615H80.4725V18.0224H83.2631V8.99169H88.9703V18.0224H97.6569V23.7615H88.9703V30.4712C88.9703 31.0761 89.0822 31.6458 89.306 32.1803C89.5298 32.7008 89.8376 33.1579 90.2292 33.5518C90.6209 33.9457 91.0825 34.2621 91.6141 34.5013C92.1456 34.7263 92.7121 34.8389 93.3136 34.8389H97.6569V40.578H93.3136Z"
    fill="white" class="text" />
  <path
    d="M106.616 40.578H100.888V17.9802H102.273L104.161 20.6598C105.085 19.8159 106.134 19.1688 107.309 18.7187C108.484 18.2545 109.701 18.0224 110.96 18.0224H116.016V23.7615H110.96C110.358 23.7615 109.792 23.874 109.26 24.0991C108.729 24.3242 108.267 24.6336 107.875 25.0275C107.484 25.4214 107.176 25.8856 106.952 26.4201C106.728 26.9546 106.616 27.5243 106.616 28.1292V40.578Z"
    fill="white" class="text" />
  <path
    d="M127.2 35.0499C127.424 35.1202 127.648 35.1694 127.871 35.1976C128.095 35.2116 128.319 35.2187 128.543 35.2187C129.102 35.2187 129.641 35.1413 130.158 34.9866C130.676 34.8318 131.159 34.6138 131.606 34.3325C132.068 34.0371 132.474 33.6854 132.823 33.2775C133.187 32.8555 133.481 32.3913 133.704 31.8849L137.901 36.126C137.369 36.8856 136.754 37.5678 136.054 38.1726C135.369 38.7775 134.621 39.2909 133.809 39.7129C133.012 40.1349 132.166 40.4514 131.271 40.6624C130.389 40.8875 129.48 41 128.543 41C126.962 41 125.472 40.7046 124.074 40.1138C122.689 39.523 121.472 38.7001 120.423 37.6451C119.388 36.5902 118.569 35.3382 117.968 33.8894C117.366 32.4265 117.066 30.8229 117.066 29.0786C117.066 27.2922 117.366 25.6605 117.968 24.1835C118.569 22.7065 119.388 21.4476 120.423 20.4066C121.472 19.3657 122.689 18.5569 124.074 17.9802C125.472 17.4035 126.962 17.1151 128.543 17.1151C129.48 17.1151 130.396 17.2276 131.292 17.4527C132.187 17.6777 133.033 18.0013 133.83 18.4233C134.642 18.8453 135.397 19.3657 136.096 19.9847C136.796 20.5895 137.411 21.2717 137.943 22.0313L127.2 35.0499ZM130.137 23.1707C129.872 23.0723 129.606 23.009 129.34 22.9808C129.088 22.9527 128.823 22.9386 128.543 22.9386C127.76 22.9386 127.018 23.0863 126.319 23.3817C125.633 23.663 125.032 24.071 124.514 24.6055C124.011 25.14 123.612 25.7871 123.318 26.5467C123.025 27.2922 122.878 28.1362 122.878 29.0786C122.878 29.2896 122.885 29.5288 122.899 29.796C122.927 30.0633 122.962 30.3376 123.004 30.6189C123.059 30.8862 123.122 31.1464 123.192 31.3996C123.262 31.6528 123.353 31.8779 123.465 32.0748L130.137 23.1707Z"
    fill="white" class="text" />
  <path
    d="M162.429 40.578H161.044L158.82 37.4763C158.275 37.9687 157.694 38.4329 157.079 38.8689C156.477 39.2909 155.841 39.6637 155.169 39.9872C154.498 40.2967 153.805 40.5428 153.092 40.7257C152.393 40.9086 151.679 41 150.952 41C149.371 41 147.882 40.7327 146.483 40.1982C145.098 39.6637 143.881 38.89 142.832 37.8772C141.797 36.8504 140.978 35.5985 140.377 34.1215C139.775 32.6445 139.475 30.9636 139.475 29.0786C139.475 27.3203 139.775 25.7097 140.377 24.2468C140.978 22.7698 141.797 21.5038 142.832 20.4488C143.881 19.3939 145.098 18.578 146.483 18.0013C147.882 17.4105 149.371 17.1151 150.952 17.1151C151.679 17.1151 152.4 17.2065 153.113 17.3894C153.826 17.5723 154.519 17.8254 155.19 18.149C155.862 18.4725 156.498 18.8523 157.1 19.2884C157.715 19.7244 158.289 20.1957 158.82 20.702L161.044 18.0224H162.429V40.578ZM156.659 29.0786C156.659 28.2909 156.505 27.5313 156.197 26.7999C155.904 26.0543 155.498 25.4003 154.981 24.8376C154.463 24.2609 153.854 23.8037 153.155 23.4661C152.47 23.1145 151.735 22.9386 150.952 22.9386C150.169 22.9386 149.427 23.0723 148.728 23.3395C148.042 23.6068 147.441 24.0006 146.923 24.5211C146.42 25.0416 146.021 25.6886 145.727 26.4623C145.434 27.2219 145.287 28.094 145.287 29.0786C145.287 30.0633 145.434 30.9425 145.727 31.7161C146.021 32.4757 146.42 33.1157 146.923 33.6362C147.441 34.1567 148.042 34.5505 148.728 34.8178C149.427 35.085 150.169 35.2187 150.952 35.2187C151.735 35.2187 152.47 35.0499 153.155 34.7123C153.854 34.3606 154.463 33.9035 154.981 33.3408C155.498 32.7641 155.904 32.11 156.197 31.3785C156.505 30.633 156.659 29.8664 156.659 29.0786Z"
    fill="white" class="text" />
  <path
    d="M195.392 40.578H189.685V26.2302C189.685 25.8363 189.608 25.4636 189.454 25.1119C189.314 24.7602 189.112 24.4508 188.846 24.1835C188.58 23.9162 188.272 23.7123 187.923 23.5716C187.573 23.4169 187.202 23.3395 186.811 23.3395C186.419 23.3395 186.048 23.4169 185.699 23.5716C185.363 23.7123 185.062 23.9162 184.796 24.1835C184.545 24.4508 184.342 24.7602 184.188 25.1119C184.048 25.4636 183.978 25.8363 183.978 26.2302V40.578H178.25V26.2302C178.25 25.8363 178.173 25.4636 178.019 25.1119C177.879 24.7602 177.676 24.4508 177.411 24.1835C177.145 23.9162 176.837 23.7123 176.487 23.5716C176.138 23.4169 175.767 23.3395 175.375 23.3395C174.984 23.3395 174.613 23.4169 174.263 23.5716C173.927 23.7123 173.627 23.9162 173.361 24.1835C173.109 24.4508 172.906 24.7602 172.752 25.1119C172.613 25.4636 172.543 25.8363 172.543 26.2302V40.578H166.815V17.9802H168.199L169.752 19.7104C170.549 19.0352 171.424 18.5147 172.375 18.149C173.34 17.7692 174.34 17.5793 175.375 17.5793C176.424 17.5793 177.446 17.7762 178.439 18.1701C179.446 18.5639 180.327 19.2462 181.082 20.2168C181.432 19.7385 181.831 19.3306 182.278 18.993C182.726 18.6554 183.195 18.3811 183.684 18.1701C184.188 17.9591 184.705 17.8114 185.237 17.727C185.768 17.6285 186.293 17.5793 186.811 17.5793C188 17.5793 189.112 17.8043 190.147 18.2545C191.196 18.7046 192.105 19.3235 192.874 20.1113C193.658 20.8849 194.273 21.7992 194.721 22.8542C195.169 23.9092 195.392 25.0345 195.392 26.2302V40.578Z"
    fill="white" class="text" />
  <path
    d="M223.194 10.321L213.311 40.578H207.289L197.449 10.321H204.289L210.29 30.5134L216.312 10.321H223.194Z"
    fill="white" class="text" />
  <path
    d="M232.237 11.8402C232.237 12.3747 232.132 12.874 231.922 13.3382C231.727 13.8024 231.454 14.2104 231.104 14.562C230.754 14.8996 230.342 15.1739 229.866 15.3849C229.405 15.5818 228.908 15.6803 228.376 15.6803C227.845 15.6803 227.341 15.5818 226.866 15.3849C226.404 15.1739 225.998 14.8996 225.649 14.562C225.313 14.2104 225.04 13.8024 224.83 13.3382C224.635 12.874 224.537 12.3747 224.537 11.8402C224.537 11.3197 224.635 10.8274 224.83 10.3632C225.04 9.88491 225.313 9.47698 225.649 9.13939C225.998 8.78772 226.404 8.51343 226.866 8.3165C227.341 8.1055 227.845 8 228.376 8C228.908 8 229.405 8.1055 229.866 8.3165C230.342 8.51343 230.754 8.78772 231.104 9.13939C231.454 9.47698 231.727 9.88491 231.922 10.3632C232.132 10.8274 232.237 11.3197 232.237 11.8402ZM231.251 40.578H225.481V17.9802H231.251V40.578Z"
    fill="white" class="text" />
  <path
    d="M258.129 29.0786C258.129 30.851 257.829 32.4687 257.227 33.9316C256.626 35.3945 255.807 36.6535 254.772 37.7084C253.737 38.7494 252.52 39.5582 251.121 40.1349C249.736 40.7116 248.247 41 246.652 41C245.071 41 243.582 40.7046 242.183 40.1138C240.798 39.523 239.581 38.7001 238.532 37.6451C237.497 36.5902 236.678 35.3382 236.077 33.8894C235.475 32.4265 235.175 30.8229 235.175 29.0786V8.99169H240.924V19.5416C241.232 19.1477 241.602 18.796 242.036 18.4866C242.484 18.1771 242.959 17.9239 243.463 17.727C243.98 17.5301 244.512 17.3824 245.057 17.2839C245.603 17.1714 246.134 17.1151 246.652 17.1151C248.247 17.1151 249.736 17.4175 251.121 18.0224C252.52 18.6132 253.737 19.4431 254.772 20.5121C255.807 21.5812 256.626 22.8472 257.227 24.3101C257.829 25.759 258.129 27.3485 258.129 29.0786ZM252.359 29.0786C252.359 28.2065 252.205 27.3977 251.898 26.6522C251.604 25.8926 251.198 25.2385 250.681 24.6899C250.163 24.1413 249.555 23.7123 248.855 23.4028C248.17 23.0934 247.435 22.9386 246.652 22.9386C245.869 22.9386 245.127 23.1145 244.428 23.4661C243.742 23.8037 243.141 24.2609 242.623 24.8376C242.106 25.4003 241.7 26.0543 241.406 26.7999C241.113 27.5313 240.966 28.2909 240.966 29.0786C240.966 29.9508 241.113 30.7596 241.406 31.5051C241.7 32.2506 242.106 32.8977 242.623 33.4463C243.141 33.9949 243.742 34.4309 244.428 34.7545C245.127 35.0639 245.869 35.2187 246.652 35.2187C247.435 35.2187 248.17 35.0639 248.855 34.7545C249.555 34.4309 250.163 33.9949 250.681 33.4463C251.198 32.8977 251.604 32.2506 251.898 31.5051C252.205 30.7596 252.359 29.9508 252.359 29.0786Z"
    fill="white" class="text" />
  <path
    d="M270.257 35.0499C270.481 35.1202 270.705 35.1694 270.929 35.1976C271.152 35.2116 271.376 35.2187 271.6 35.2187C272.159 35.2187 272.698 35.1413 273.216 34.9866C273.733 34.8318 274.216 34.6138 274.663 34.3325C275.125 34.0371 275.531 33.6854 275.88 33.2775C276.244 32.8555 276.538 32.3913 276.762 31.8849L280.958 36.126C280.426 36.8856 279.811 37.5678 279.112 38.1726C278.426 38.7775 277.678 39.2909 276.866 39.7129C276.069 40.1349 275.223 40.4514 274.328 40.6624C273.446 40.8875 272.537 41 271.6 41C270.019 41 268.53 40.7046 267.131 40.1138C265.746 39.523 264.529 38.7001 263.48 37.6451C262.445 36.5902 261.626 35.3382 261.025 33.8894C260.423 32.4265 260.123 30.8229 260.123 29.0786C260.123 27.2922 260.423 25.6605 261.025 24.1835C261.626 22.7065 262.445 21.4476 263.48 20.4066C264.529 19.3657 265.746 18.5569 267.131 17.9802C268.53 17.4035 270.019 17.1151 271.6 17.1151C272.537 17.1151 273.453 17.2276 274.349 17.4527C275.244 17.6777 276.09 18.0013 276.887 18.4233C277.699 18.8453 278.454 19.3657 279.154 19.9847C279.853 20.5895 280.468 21.2717 281 22.0313L270.257 35.0499ZM273.195 23.1707C272.929 23.0723 272.663 23.009 272.397 22.9808C272.145 22.9527 271.88 22.9386 271.6 22.9386C270.817 22.9386 270.075 23.0863 269.376 23.3817C268.69 23.663 268.089 24.071 267.571 24.6055C267.068 25.14 266.669 25.7871 266.375 26.5467C266.082 27.2922 265.935 28.1362 265.935 29.0786C265.935 29.2896 265.942 29.5288 265.956 29.796C265.984 30.0633 266.019 30.3376 266.061 30.6189C266.117 30.8862 266.18 31.1464 266.249 31.3996C266.319 31.6528 266.41 31.8779 266.522 32.0748L273.195 23.1707Z"
    fill="white" class="text" />
</svg>